<?xml version="1.0" encoding="UTF-8" standalone="no" ?>
<!DOCTYPE svg PUBLIC "-//W3C//DTD SVG 1.1//EN" "http://www.w3.org/Graphics/SVG/1.1/DTD/svg11.dtd">
<svg xmlns="http://www.w3.org/2000/svg" xmlns:xlink="http://www.w3.org/1999/xlink" version="1.1" width="500" height="300" viewBox="158.18 212.73 500 300" xml:space="preserve">
<desc>Created with Fabric.js 5.2.4</desc>
<defs>
</defs>
<rect x="0" y="0" width="100%" height="100%" fill="transparent"></rect>
<g transform="matrix(1 0 0 1 250 150)" id="9bbee26d-9b27-4d77-bb3f-3c55429124a0"  >
<rect style="stroke: none; stroke-width: 1; stroke-dasharray: none; stroke-linecap: butt; stroke-dashoffset: 0; stroke-linejoin: miter; stroke-miterlimit: 4; fill: rgb(255,255,255); fill-rule: nonzero; opacity: 1; visibility: hidden;" vector-effect="non-scaling-stroke"  x="-250" y="-150" rx="0" ry="0" width="500" height="300" />
</g>
<g transform="matrix(Infinity NaN NaN Infinity 0 0)" id="626c3e26-e2c5-426f-9a5b-5b81f588f3a0"  >
</g>
<g transform="matrix(0.43 0 0 0.43 408.23 362.05)"  >
<g style="" vector-effect="non-scaling-stroke"   >
		<g transform="matrix(1 0 0 1 -2.81 93.8)" id="XMLID_2_"  >
<path style="stroke: none; stroke-width: 1; stroke-dasharray: none; stroke-linecap: butt; stroke-dashoffset: 0; stroke-linejoin: miter; stroke-miterlimit: 4; fill: rgb(104,159,99); fill-rule: nonzero; opacity: 1;" vector-effect="non-scaling-stroke"  transform=" translate(-253.24, -349.8)" d="M 253.03 412.87 C 251.35 412.87 249.66 412.45 248.12 411.61 L 232.69 402.49 C 230.44 401.23 231.57 400.81 232.27 400.53000000000003 C 235.36 399.41 235.92000000000002 399.27000000000004 239.29000000000002 397.3 C 239.57000000000002 397.16 240.13000000000002 397.16 240.41000000000003 397.44 L 252.34000000000003 404.46 C 252.76000000000002 404.73999999999995 253.32000000000002 404.73999999999995 253.74000000000004 404.46 L 300.04 377.79999999999995 C 300.46000000000004 377.52 300.74 377.09999999999997 300.74 376.53999999999996 L 300.74 323.21999999999997 C 300.74 322.65999999999997 300.46000000000004 322.23999999999995 300.04 321.96 L 253.88000000000002 295.29999999999995 C 253.46000000000004 295.02 252.90000000000003 295.02 252.48000000000002 295.29999999999995 L 206.32000000000002 321.96 C 205.90000000000003 322.23999999999995 205.62000000000003 322.65999999999997 205.62000000000003 323.21999999999997 L 205.62000000000003 376.53999999999996 C 205.62000000000003 377.09999999999997 205.90000000000003 377.52 206.32000000000002 377.79999999999995 L 218.95000000000002 385.09999999999997 C 225.83 388.60999999999996 230.03000000000003 384.53999999999996 230.03000000000003 380.46999999999997 L 230.03000000000003 327.57 C 230.03000000000003 326.87 230.59000000000003 326.31 231.43000000000004 326.31 L 237.32000000000002 326.31 C 238.02 326.31 238.58 326.87 238.58 327.57 L 238.58 380.33 C 238.58 389.45 233.53 394.78 224.83 394.78 C 222.16000000000003 394.78 220.06 394.78 214.17000000000002 391.83 L 202.10000000000002 384.81 C 199.15000000000003 383.13 197.19000000000003 379.9 197.19000000000003 376.39 L 197.19000000000003 323.07 C 197.19000000000003 319.56 199.01000000000002 316.34 202.10000000000002 314.65 L 248.40000000000003 287.98999999999995 C 251.35000000000002 286.30999999999995 255.28000000000003 286.30999999999995 258.08000000000004 287.98999999999995 L 304.38000000000005 314.65 C 307.33000000000004 316.33 309.2900000000001 319.56 309.2900000000001 323.07 L 309.2900000000001 376.39 C 309.2900000000001 379.9 307.4700000000001 383.12 304.38000000000005 384.81 L 258.08000000000004 411.47 C 256.4 412.31 254.72 412.87 253.03 412.87" stroke-linecap="round" />
</g>
		<g transform="matrix(1 0 0 1 32.41 87.63)" id="XMLID_3_"  >
<path style="stroke: none; stroke-width: 1; stroke-dasharray: none; stroke-linecap: butt; stroke-dashoffset: 0; stroke-linejoin: miter; stroke-miterlimit: 4; fill: rgb(104,159,99); fill-rule: nonzero; opacity: 1;" vector-effect="non-scaling-stroke"  transform=" translate(-288.47, -343.63)" d="M 267.35 376.11 C 247.15000000000003 376.11 242.94000000000003 366.85 242.94000000000003 358.99 C 242.94000000000003 358.29 243.50000000000003 357.73 244.34000000000003 357.73 L 250.37000000000003 357.73 C 251.07000000000002 357.73 251.63000000000002 358.15000000000003 251.63000000000002 358.85 C 252.47000000000003 364.88 255.28000000000003 367.97 267.49 367.97 C 277.17 367.97 281.38 365.72 281.38 360.53000000000003 C 281.38 357.58000000000004 280.26 355.34000000000003 265.1 353.8 C 252.47000000000003 352.54 244.61 349.73 244.61 339.63 C 244.61 330.23 252.47000000000003 324.76 265.66 324.76 C 280.53000000000003 324.76 287.83000000000004 329.95 288.67 340.9 C 288.67 341.32 288.53000000000003 341.59999999999997 288.25 341.88 C 287.97 342.15999999999997 287.69 342.3 287.27 342.3 L 281.24 342.3 C 280.68 342.3 280.12 341.88 279.98 341.32 C 278.58000000000004 334.87 275.07 332.9 265.53000000000003 332.9 C 254.87000000000003 332.9 253.60000000000002 336.54999999999995 253.60000000000002 339.34999999999997 C 253.60000000000002 342.71999999999997 255.00000000000003 343.7 269.46000000000004 345.65999999999997 C 283.63000000000005 347.47999999999996 290.37000000000006 350.15 290.37000000000006 360.24999999999994 C 290.36 370.35 281.94 376.11 267.35 376.11 M 323.61 319.56 L 325.15000000000003 319.56 C 326.41 319.56 326.69000000000005 318.72 326.69000000000005 318.16 C 326.69000000000005 316.76000000000005 325.71000000000004 316.76000000000005 325.2900000000001 316.76000000000005 L 323.75000000000006 316.76000000000005 L 323.61 319.56 z M 321.65 315.07 L 325.15999999999997 315.07 C 326.28 315.07 328.66999999999996 315.07 328.66999999999996 317.74 C 328.66999999999996 319.56 327.54999999999995 319.99 326.84999999999997 320.13 C 328.24999999999994 320.27 328.24999999999994 321.11 328.53 322.37 C 328.66999999999996 323.21 328.80999999999995 324.61 329.09 325.04 L 326.98999999999995 325.04 C 326.98999999999995 324.62 326.56999999999994 322.09000000000003 326.56999999999994 321.95000000000005 C 326.42999999999995 321.39000000000004 326.28999999999996 321.11000000000007 325.5899999999999 321.11000000000007 L 323.9099999999999 321.11000000000007 L 323.9099999999999 325.18000000000006 L 321.94999999999993 325.18000000000006 L 321.94999999999993 315.08000000000004 L 321.65 315.08000000000004 z M 317.58 320.12 C 317.58 324.33 320.95 327.56 325.02 327.56 C 329.22999999999996 327.56 332.46 324.19 332.46 320.12 C 332.46 315.91 329.09 312.68 325.02 312.68 C 320.94 312.69 317.58 315.91 317.58 320.12 M 333.99 320.12 C 333.99 325.03000000000003 329.92 329.1 325.01 329.1 C 320.09999999999997 329.1 316.03 325.17 316.03 320.12 C 316.03 315.07 320.23999999999995 311.14 325.01 311.14 C 329.78 311.28 333.99 315.07 333.99 320.12" stroke-linecap="round" />
</g>
		<g transform="matrix(1 0 0 1 0 -58.1)" id="XMLID_9_"  >
<path style="stroke: none; stroke-width: 1; stroke-dasharray: none; stroke-linecap: butt; stroke-dashoffset: 0; stroke-linejoin: miter; stroke-miterlimit: 4; fill: rgb(64,65,55); fill-rule: nonzero; opacity: 1;" vector-effect="non-scaling-stroke"  transform=" translate(-256.05, -197.9)" d="M 109.77 203.94 C 109.77 201.84 108.64999999999999 199.87 106.82 198.75 L 57.849999999999994 170.55 C 57.00999999999999 170.13000000000002 56.029999999999994 169.85000000000002 55.17999999999999 169.71 L 54.61999999999999 169.71 C 53.63999999999999 169.71 52.79999999999999 169.99 51.94999999999999 170.55 L 3 198.75 C 1.18 199.87 0.04999999999999982 201.84 0.04999999999999982 203.94 L 0.18999999999999984 279.99 C 0.18999999999999984 281.11 0.7499999999999999 282.09000000000003 1.5899999999999999 282.52 C 2.4299999999999997 283.08 3.69 283.08 4.54 282.52 L 33.58 265.82 C 35.4 264.7 36.53 262.73 36.53 260.63 L 36.53 225.13 C 36.53 223.03 37.65 221.06 39.480000000000004 219.94 L 51.830000000000005 212.78 C 52.81 212.22 53.790000000000006 211.94 54.78000000000001 211.94 C 55.77000000000001 211.94 56.88000000000001 212.22 57.73000000000001 212.78 L 70.08000000000001 219.94 C 71.9 221.06 73.03000000000002 222.89 73.03000000000002 225.13 L 73.03000000000002 260.63 C 73.03000000000002 262.73 74.15000000000002 264.7 75.98000000000002 265.82 L 105.16000000000003 282.52 C 106.14000000000003 283.08 107.26000000000002 283.08 108.11000000000003 282.52 C 108.95000000000003 281.96 109.51000000000003 280.97999999999996 109.51000000000003 279.99 L 109.77 203.94 z M 341.15 243.51 C 341.15 244.07 340.87 244.48999999999998 340.45 244.76999999999998 L 323.61 254.45 C 323.19 254.73 322.63 254.73 322.07 254.45 L 305.23 244.76999999999998 C 304.81 244.48999999999998 304.53000000000003 244.07 304.53000000000003 243.51 L 304.53000000000003 224.01 C 304.53000000000003 223.45 304.81 223.03 305.23 222.75 L 322.07 213.07 C 322.49 212.79 323.05 212.79 323.61 213.07 L 340.45 222.75 C 340.87 223.03 341.15 223.45 341.15 224.01 L 341.15 243.51 z M 345.78 99.55 C 344.79999999999995 98.99 343.67999999999995 98.99 342.83 99.55 C 341.98 100.11 341.43 101.09 341.43 102.08 L 341.43 177.43 C 341.43 178.13 341.01 178.83 340.45 179.25 C 339.75 179.67 339.05 179.67 338.34999999999997 179.25 L 326 172.23 C 324.18 171.10999999999999 321.93 171.10999999999999 320.11 172.23 L 271 200.57 C 269.18 201.69 268.05 203.51999999999998 268.05 205.62 L 268.05 262.31 C 268.05 264.41 269.17 266.38 271 267.5 L 320.11 295.84 C 321.93 296.96 324.18 296.96 326 295.84 L 375.11 267.5 C 376.93 266.38 378.06 264.55 378.06 262.31 L 378.06 121.02 C 378.06 118.92 376.94 116.94999999999999 374.97 115.83 L 345.78 99.55 z M 509.1 223.59 C 510.92 222.47 512.0500000000001 220.64000000000001 512.0500000000001 218.54 L 512.0500000000001 204.79 C 512.0500000000001 202.69 510.93000000000006 200.72 509.1000000000001 199.6 L 460.4100000000001 171.26 C 458.5900000000001 170.14 456.3400000000001 170.14 454.5200000000001 171.26 L 405.4100000000001 199.6 C 403.5900000000001 200.72 402.4600000000001 202.54999999999998 402.4600000000001 204.79 L 402.4600000000001 261.34 C 402.4600000000001 263.44 403.5800000000001 265.40999999999997 405.4100000000001 266.53 L 454.1000000000001 294.30999999999995 C 455.9200000000001 295.28999999999996 458.0300000000001 295.28999999999996 459.8500000000001 294.30999999999995 L 489.32000000000005 277.88999999999993 C 490.30000000000007 277.3299999999999 490.86000000000007 276.3499999999999 490.86000000000007 275.35999999999996 C 490.86000000000007 274.23999999999995 490.30000000000007 273.25999999999993 489.32000000000005 272.83 L 439.93000000000006 244.48999999999998 C 438.95000000000005 243.92999999999998 438.39000000000004 242.95 438.39000000000004 241.95999999999998 L 438.39000000000004 224.14 C 438.39000000000004 223.01999999999998 438.95000000000005 222.04 439.93000000000006 221.60999999999999 L 455.2200000000001 212.76999999999998 C 456.2000000000001 212.20999999999998 457.3200000000001 212.20999999999998 458.1700000000001 212.76999999999998 L 473.4600000000001 221.60999999999999 C 474.4400000000001 222.17 475.0000000000001 223.14999999999998 475.0000000000001 224.14 L 475.0000000000001 238.17 C 475.0000000000001 239.29 475.5600000000001 240.26999999999998 476.54000000000013 240.7 C 477.52000000000015 241.26 478.64000000000016 241.26 479.4900000000001 240.7 L 509.1 223.59 z" stroke-linecap="round" />
</g>
		<g transform="matrix(1 0 0 1 201.14 -23.23)" id="XMLID_14_"  >
<path style="stroke: none; stroke-width: 1; stroke-dasharray: none; stroke-linecap: butt; stroke-dashoffset: 0; stroke-linejoin: miter; stroke-miterlimit: 4; fill: rgb(104,159,99); fill-rule: nonzero; opacity: 1;" vector-effect="non-scaling-stroke"  transform=" translate(-457.19, -232.77)" d="M 456.63 220.92 C 456.90999999999997 220.78 457.46999999999997 220.78 457.75 220.92 L 467.15 226.39 C 467.57 226.52999999999997 467.71 226.95 467.71 227.36999999999998 L 467.71 238.17 C 467.71 238.58999999999997 467.43 239.01 467.15 239.14999999999998 L 457.75 244.61999999999998 C 457.33 244.75999999999996 456.91 244.75999999999996 456.63 244.61999999999998 L 447.23 239.14999999999998 C 446.81 239.01 446.67 238.58999999999997 446.67 238.17 L 446.67 227.36999999999998 C 446.67 226.95 446.81 226.52999999999997 447.23 226.39 L 456.63 220.92 z" stroke-linecap="round" />
</g>
		<g transform="matrix(1 0 0 1 -67.14 -22.81)" clip-path="url(#CLIPPATH_6)"  >
<linearGradient id="SVGID_SVGID_00000159439491829434014280000013658752062005157052__3" gradientUnits="userSpaceOnUse" gradientTransform="matrix(-81.16 165.57 165.57 81.16 -83224.14 -42172.36)"  x1="6.2666" y1="505.9374" x2="7.1353" y2="505.9374">
<stop offset="0%" style="stop-color:rgb(62,134,61);stop-opacity: 1"/>
<stop offset="30%" style="stop-color:rgb(62,134,61);stop-opacity: 1"/>
<stop offset="50%" style="stop-color:rgb(85,147,79);stop-opacity: 1"/>
<stop offset="80%" style="stop-color:rgb(90,173,69);stop-opacity: 1"/>
<stop offset="100%" style="stop-color:rgb(90,173,69);stop-opacity: 1"/>
</linearGradient>
<clipPath id="CLIPPATH_6" >
	<path transform="matrix(1 0 0 1 -0.01 -0.12) translate(-188.9, -233.07)" id="SVGID_00000165936864423636994650000006088876481334603650_" d="M 185.96 171.67 L 137.13 199.86999999999998 C 135.31 200.98999999999998 134.18 202.81999999999996 134.18 204.92 L 134.18 261.33 C 134.18 263.43 135.3 265.4 137.13 266.38 L 185.95999999999998 294.58 C 187.77999999999997 295.56 190.02999999999997 295.56 191.84999999999997 294.58 L 240.67999999999995 266.38 C 242.49999999999994 265.26 243.62999999999994 263.43 243.62999999999994 261.33 L 243.62999999999994 204.92 C 243.62999999999994 202.82 242.50999999999993 200.85 240.67999999999995 199.86999999999998 L 191.84999999999997 171.67 C 190.86999999999998 171.10999999999999 189.88999999999996 170.82999999999998 188.89999999999998 170.82999999999998 C 187.91 170.82999999999998 186.95 171.11 185.96 171.67" stroke-linecap="round" />
</clipPath>
<polygon style="stroke: none; stroke-width: 1; stroke-dasharray: none; stroke-linecap: butt; stroke-dashoffset: 0; stroke-linejoin: miter; stroke-miterlimit: 4; fill: url(#SVGID_SVGID_00000159439491829434014280000013658752062005157052__3); fill-rule: nonzero; opacity: 1;" vector-effect="non-scaling-stroke"  points="103.97,-38.23 -33.53,-105.58 -103.97,38.24 33.54,105.58 " />
</g>
		<g transform="matrix(1 0 0 1 -67.28 -22.87)" clip-path="url(#CLIPPATH_7)"  >
<linearGradient id="SVGID_SVGID_00000145766840868520982600000017523024596018480513__4" gradientUnits="userSpaceOnUse" gradientTransform="matrix(147.81 -109.21 -109.21 -147.81 54326.69 75472.86)"  x1="5.8621" y1="505.9582" x2="6.7304" y2="505.9582">
<stop offset="0%" style="stop-color:rgb(62,134,61);stop-opacity: 1"/>
<stop offset="56.99999999999999%" style="stop-color:rgb(62,134,61);stop-opacity: 1"/>
<stop offset="72%" style="stop-color:rgb(97,152,87);stop-opacity: 1"/>
<stop offset="100%" style="stop-color:rgb(118,172,100);stop-opacity: 1"/>
</linearGradient>
<clipPath id="CLIPPATH_7" >
	<path transform="matrix(1 0 0 1 -0.07 0.08) translate(-188.69, -233.21)" id="SVGID_00000126325432335670011400000012370551057622813352_" d="M 135.45 264.84 C 135.86999999999998 265.4 136.42999999999998 265.96 137.13 266.38 L 178.94 290.51 L 185.96 294.58 C 186.94 295.14 188.21 295.41999999999996 189.33 295.28 C 189.75 295.28 190.17000000000002 295.14 190.45000000000002 295 L 241.94000000000003 200.85 C 241.52000000000004 200.43 241.10000000000002 200.01 240.54000000000002 199.73 L 208.55 181.35 L 191.71 171.67 C 191.29000000000002 171.39 190.73000000000002 171.25 190.17000000000002 171.10999999999999 L 135.45 264.84 z" stroke-linecap="round" />
</clipPath>
<polygon style="stroke: none; stroke-width: 1; stroke-dasharray: none; stroke-linecap: butt; stroke-dashoffset: 0; stroke-linejoin: miter; stroke-miterlimit: 4; fill: url(#SVGID_SVGID_00000145766840868520982600000017523024596018480513__4); fill-rule: nonzero; opacity: 1;" vector-effect="non-scaling-stroke"  points="-112.67,-18.24 -15.71,113.09 112.67,18.38 15.57,-113.09 " />
</g>
		<g transform="matrix(1 0 0 1 -65.59 -23.01)" clip-path="url(#CLIPPATH_8)"  >
<linearGradient id="SVGID_SVGID_00000031189806858765299530000000292066690301689516__5" gradientUnits="userSpaceOnUse" gradientTransform="matrix(122.24 0 0 -122.24 -768.38 61827.33)"  x1="5.8517" y1="505.7708" x2="6.7194" y2="505.7708">
<stop offset="0%" style="stop-color:rgb(107,191,71);stop-opacity: 1"/>
<stop offset="16%" style="stop-color:rgb(107,191,71);stop-opacity: 1"/>
<stop offset="38%" style="stop-color:rgb(121,180,97);stop-opacity: 1"/>
<stop offset="47%" style="stop-color:rgb(117,172,100);stop-opacity: 1"/>
<stop offset="70%" style="stop-color:rgb(101,158,90);stop-opacity: 1"/>
<stop offset="90%" style="stop-color:rgb(62,134,61);stop-opacity: 1"/>
<stop offset="100%" style="stop-color:rgb(62,134,61);stop-opacity: 1"/>
</linearGradient>
<clipPath id="CLIPPATH_8" >
	<path transform="matrix(1 0 0 1 -0.08 0) translate(-190.38, -232.99)" id="SVGID_00000006672566818771213260000010607772570531590075_" d="M 188.35 170.83 C 187.51 170.97 186.67 171.11 185.96 171.53 L 137.27 199.59 L 189.75 295.14 C 190.45 295 191.15 294.86 191.85 294.44 L 240.68 266.24 C 242.22 265.40000000000003 243.21 263.85 243.49 262.17 L 190.03 170.97000000000003 C 189.61 170.83000000000004 189.19 170.83000000000004 188.91 170.83000000000004 C 188.63 170.83 188.49 170.83 188.35 170.83" stroke-linecap="round" />
</clipPath>
<rect style="stroke: none; stroke-width: 1; stroke-dasharray: none; stroke-linecap: butt; stroke-dashoffset: 0; stroke-linejoin: miter; stroke-miterlimit: 4; fill: url(#SVGID_SVGID_00000031189806858765299530000000292066690301689516__5); fill-rule: nonzero; opacity: 1;" vector-effect="non-scaling-stroke"  x="-53.04" y="-62.16" rx="0" ry="0" width="106.08" height="124.32" />
</g>
</g>
</g>
</svg>